<svg width="16" height="16" viewBox="0 0 16 16" fill="none" xmlns="http://www.w3.org/2000/svg">
<path fill-rule="evenodd" clip-rule="evenodd" d="M5 0.5H10.775C13.2603 0.5 15.275 2.51472 15.275 5V10.775C15.275 13.2603 13.2603 15.275 10.775 15.275H5C2.51472 15.275 0.5 13.2603 0.5 10.775V5C0.5 2.51472 2.51472 0.5 5 0.5ZM14.15 5C14.1459 3.13775 12.6372 1.62912 10.775 1.625H5C3.13775 1.62912 1.62912 3.13775 1.625 5V10.775C1.62912 12.6372 3.13775 14.1459 5 14.15H10.775C12.6372 14.1459 14.1459 12.6372 14.15 10.775V5Z" fill="white"/>
<path fill-rule="evenodd" clip-rule="evenodd" d="M4.6625 7.8875C4.66662 6.10809 6.10809 4.66662 7.8875 4.6625C9.66691 4.66662 11.1084 6.10809 11.1125 7.8875C11.1125 9.66862 9.66862 11.1125 7.8875 11.1125C6.10638 11.1125 4.6625 9.66862 4.6625 7.8875ZM9.9875 7.8875C9.9875 6.7277 9.0473 5.7875 7.8875 5.7875C6.72941 5.79161 5.79161 6.72941 5.7875 7.8875C5.7875 9.0473 6.7277 9.9875 7.8875 9.9875C9.0473 9.9875 9.9875 9.0473 9.9875 7.8875Z" fill="white"/>
</svg>
