<svg width="18" height="19" viewBox="0 0 18 19" fill="none" xmlns="http://www.w3.org/2000/svg">
<path fill-rule="evenodd" clip-rule="evenodd" d="M0.803568 10.4648C0.803568 5.91249 4.49398 2.22208 9.04634 2.22208C13.5987 2.22208 17.2891 5.91249 17.2891 10.4648C17.2891 15.0172 13.5987 18.7076 9.04634 18.7076C4.49398 18.7076 0.803568 15.0172 0.803568 10.4648ZM2.17736 10.4648C2.17736 14.2585 5.25271 17.3338 9.04634 17.3338C10.8681 17.3338 12.6153 16.6101 13.9034 15.3219C15.1916 14.0338 15.9153 12.2866 15.9153 10.4648C15.9153 6.67122 12.84 3.59587 9.04634 3.59587C5.25271 3.59587 2.17736 6.67122 2.17736 10.4648Z" fill="white"/>
<path d="M6.89406 6.97541C6.62341 6.72322 6.20166 6.73066 5.94008 6.99224C5.67849 7.25382 5.67105 7.67558 5.92324 7.94622L8.35944 10.3824V14.1283C8.35944 14.5077 8.66697 14.8152 9.04634 14.8152C9.4257 14.8152 9.73324 14.5077 9.73324 14.1283V10.0985C9.73307 9.91639 9.6606 9.74179 9.53175 9.61309L6.89406 6.97541Z" fill="white"/>
<path d="M17.7745 3.59587C16.6438 2.0879 15.1419 0.898373 13.415 0.143068C13.2465 0.0666706 13.0542 0.0615048 12.8818 0.12874C12.7094 0.195976 12.5715 0.329924 12.4991 0.500254C12.4201 0.668448 12.4135 0.861739 12.481 1.0349C12.5486 1.20805 12.6843 1.34588 12.8563 1.41612C14.3647 2.07979 15.6768 3.12065 16.6663 4.43847C16.796 4.61143 16.9996 4.71323 17.2158 4.71323C17.3646 4.7139 17.5094 4.66562 17.628 4.57585C17.7805 4.46769 17.8824 4.30202 17.91 4.11708C17.9377 3.93214 17.8887 3.74392 17.7745 3.59587Z" fill="white"/>
<path d="M1.4172 4.42015C2.40668 3.10233 3.71879 2.06147 5.22719 1.3978C5.39926 1.32756 5.53494 1.18973 5.60247 1.01658C5.67 0.843422 5.66346 0.65013 5.58437 0.481937C5.51206 0.311607 5.37408 0.177658 5.20168 0.110423C5.02928 0.0431876 4.83705 0.0483534 4.66851 0.12475C2.94287 0.886524 1.44405 2.08243 0.318161 3.59587C0.120327 3.89077 0.17989 4.28786 0.45554 4.51174C0.574124 4.60151 0.718947 4.64978 0.867679 4.64911C1.07613 4.66026 1.27833 4.576 1.4172 4.42015Z" fill="white"/>
</svg>
