<svg width="20" height="18" viewBox="0 0 20 18" fill="none" xmlns="http://www.w3.org/2000/svg">
<path d="M15.9712 3.60761L10.5545 1.69584C10.1956 1.56916 9.80409 1.56916 9.44517 1.69584L4.02847 3.60761C3.36212 3.84279 2.9165 4.47262 2.9165 5.17926V11.6924C2.9165 12.338 3.28935 12.9256 3.87351 13.2004L9.29017 15.7495C9.73967 15.961 10.26 15.961 10.7095 15.7494L16.1262 13.2004C16.7103 12.9256 17.0832 12.338 17.0832 11.6924V5.17926C17.0832 4.47262 16.6376 3.84279 15.9712 3.60761Z" stroke="#ADADAD" stroke-width="1.25" stroke-linecap="round"/>
<path d="M10 7.33333L14.6875 4.9375M10 7.33333L5.3125 4.9375M10 7.33333V13.5833" stroke="#ADADAD" stroke-width="1.25" stroke-linecap="round"/>
</svg>
