<svg width="18" height="20" viewBox="0 0 18 20" fill="none" xmlns="http://www.w3.org/2000/svg">
<path d="M15.6908 12.5236L11.2035 16.8822C9.04709 18.9768 5.60843 18.9521 3.48242 16.8266C1.30606 14.6508 1.30561 11.1227 3.4814 8.94633C3.48774 8.93999 3.4941 8.93366 3.50047 8.92735L10.2226 2.26809C11.6894 0.81505 14.0564 0.826174 15.5094 2.29294C15.517 2.30062 15.5246 2.30833 15.5321 2.31607C16.9905 3.814 16.9743 6.20588 15.4958 7.68394L8.72007 14.4575C8.01347 15.1639 6.88655 15.2198 6.11351 14.5868L6.00208 14.4956C5.25645 13.885 5.14693 12.7857 5.75745 12.04C5.78958 12.0008 5.82341 11.963 5.85884 11.9267L10.4149 7.25886" stroke="white" stroke-width="1.8" stroke-linecap="round" stroke-linejoin="round"/>
</svg>
