<svg width="18" height="20" viewBox="0 0 18 20" fill="none" xmlns="http://www.w3.org/2000/svg">
<path fill-rule="evenodd" clip-rule="evenodd" d="M0.803568 11.3491C0.803568 6.79677 4.49398 3.10635 9.04634 3.10635C13.5987 3.10635 17.2891 6.79677 17.2891 11.3491C17.2891 15.9015 13.5987 19.5919 9.04634 19.5919C4.49398 19.5919 0.803568 15.9015 0.803568 11.3491ZM2.17736 11.3491C2.17736 15.1428 5.25271 18.2181 9.04634 18.2181C10.8681 18.2181 12.6153 17.4944 13.9034 16.2062C15.1916 14.918 15.9153 13.1709 15.9153 11.3491C15.9153 7.55549 12.84 4.48015 9.04634 4.48015C5.25271 4.48015 2.17736 7.55549 2.17736 11.3491Z" fill="white"/>
<path d="M6.89406 7.85968C6.62341 7.60749 6.20166 7.61494 5.94008 7.87652C5.67849 8.1381 5.67105 8.55985 5.92324 8.8305L8.35944 11.2667V15.0126C8.35944 15.3919 8.66698 15.6995 9.04634 15.6995C9.4257 15.6995 9.73324 15.3919 9.73324 15.0126V10.9828C9.73308 10.8007 9.6606 10.6261 9.53174 10.4974L6.89406 7.85968Z" fill="white"/>
<path d="M17.7745 4.48015C16.6438 2.97218 15.1419 1.78265 13.415 1.02735C13.2465 0.950948 13.0542 0.945782 12.8818 1.01302C12.7094 1.08025 12.5715 1.2142 12.4991 1.38453C12.4201 1.55273 12.4135 1.74602 12.481 1.91917C12.5486 2.09233 12.6843 2.23015 12.8563 2.30039C14.3647 2.96407 15.6768 4.00493 16.6663 5.32274C16.796 5.49571 16.9996 5.5975 17.2158 5.5975C17.3646 5.59817 17.5094 5.5499 17.628 5.46012C17.7805 5.35197 17.8824 5.1863 17.91 5.00136C17.9377 4.81642 17.8887 4.6282 17.7745 4.48015Z" fill="white"/>
<path d="M1.4172 5.30443C2.40668 3.98661 3.71879 2.94575 5.22719 2.28208C5.39926 2.21184 5.53494 2.07401 5.60247 1.90086C5.67 1.7277 5.66346 1.53441 5.58437 1.36621C5.51206 1.19588 5.37408 1.06194 5.20168 0.9947C5.02928 0.927465 4.83705 0.932631 4.66851 1.00903C2.94287 1.7708 1.44405 2.9667 0.318161 4.48015C0.120327 4.77505 0.17989 5.17213 0.45554 5.39601C0.574124 5.48579 0.718947 5.53406 0.867679 5.53339C1.07613 5.54453 1.27833 5.46028 1.4172 5.30443Z" fill="white"/>
</svg>
