<svg width="19" height="19" viewBox="0 0 19 19" fill="none" xmlns="http://www.w3.org/2000/svg">
<g clip-path="url(#clip0_200_587)">
<path fill-rule="evenodd" clip-rule="evenodd" d="M10.9012 0.727953L16.7017 3.94721C17.6235 4.46076 18.1937 5.4345 18.1905 6.48975V12.7349C18.1937 13.7901 17.6235 14.7639 16.7017 15.2775L10.9012 18.4967C10.0238 18.9856 8.9558 18.9856 8.07833 18.4967L2.27786 15.2775C1.356 14.7639 0.785829 13.7901 0.789076 12.7349V6.48975C0.785829 5.4345 1.356 4.46076 2.27786 3.94721L8.07833 0.727953C8.9558 0.23912 10.0238 0.23912 10.9012 0.727953ZM15.9573 14.011C16.4153 13.7488 16.699 13.2627 16.7017 12.7349V6.48975C16.699 5.96205 16.4153 5.47577 15.9573 5.21365L10.1568 1.99439C9.71809 1.74997 9.18412 1.74997 8.74539 1.99439L2.94492 5.21365C2.48691 5.47577 2.20324 5.96205 2.20052 6.48975V12.7349C2.20324 13.2627 2.48691 13.7488 2.94492 14.011L8.74539 17.2303C9.18412 17.4748 9.71809 17.4748 10.1568 17.2303L15.9573 14.011Z" fill="#B8B8B8"/>
<path d="M14.015 5.93873L9.92567 8.21058C9.65647 8.366 9.3248 8.366 9.0556 8.21058L4.96627 5.93873C4.73955 5.80605 4.45881 5.80637 4.2324 5.93957C4.006 6.07276 3.86933 6.318 3.87518 6.58062C3.88102 6.84324 4.02844 7.08216 4.26054 7.20516L8.34987 9.47702C8.48553 9.549 8.62802 9.6073 8.77524 9.65102V13.9627C8.77524 14.3631 9.09986 14.6878 9.5003 14.6878C9.90073 14.6878 10.2254 14.3631 10.2254 13.9627V9.61236C10.3667 9.57362 10.5029 9.51847 10.6314 9.44801L14.7207 7.17616C15.0612 6.97691 15.1799 6.54203 14.9879 6.19745C14.7958 5.85285 14.3635 5.72501 14.015 5.90972V5.93873Z" fill="#B8B8B8"/>
</g>
<defs>
<clipPath id="clip0_200_587">
<rect width="19" height="19" fill="white"/>
</clipPath>
</defs>
</svg>
