<svg width="18" height="18" viewBox="0 0 18 18" fill="none" xmlns="http://www.w3.org/2000/svg">
<path fill-rule="evenodd" clip-rule="evenodd" d="M10.3275 0.689614L15.8227 3.73944C16.696 4.22596 17.2362 5.14845 17.2331 6.14816V12.0646C17.2362 13.0643 16.696 13.9868 15.8227 14.4734L10.3275 17.5232C9.49621 17.9863 8.48447 17.9863 7.65318 17.5232L2.158 14.4734C1.28466 13.9868 0.744496 13.0643 0.747572 12.0646V6.14816C0.744496 5.14845 1.28466 4.22596 2.158 3.73944L7.65318 0.689614C8.48447 0.226509 9.49621 0.226509 10.3275 0.689614ZM15.1175 13.2736C15.5514 13.0252 15.8201 12.5646 15.8227 12.0646V6.14816C15.8201 5.64823 15.5514 5.18755 15.1175 4.93922L9.62228 1.8894C9.20664 1.65784 8.70077 1.65784 8.28513 1.8894L2.78995 4.93922C2.35605 5.18755 2.08731 5.64823 2.08473 6.14816V12.0646C2.08731 12.5646 2.35605 13.0252 2.78995 13.2736L8.28513 16.3234C8.70077 16.555 9.20664 16.555 9.62228 16.3234L15.1175 13.2736Z" fill="white"/>
<path d="M13.2766 5.62612L9.40249 7.7784C9.14746 7.92564 8.83325 7.92564 8.57822 7.7784L4.70411 5.62612C4.48933 5.50042 4.22336 5.50073 4.00887 5.62692C3.79438 5.7531 3.66491 5.98543 3.67045 6.23423C3.67598 6.48302 3.81564 6.70937 4.03553 6.8259L7.90963 8.97818C8.03815 9.04638 8.17314 9.10161 8.31261 9.14303V13.2278C8.31261 13.6071 8.62015 13.9147 8.99951 13.9147C9.37887 13.9147 9.68641 13.6071 9.68641 13.2278V9.1064C9.82027 9.0697 9.94937 9.01745 10.0711 8.9507L13.9452 6.79842C14.2677 6.60966 14.3802 6.19767 14.1983 5.87122C14.0163 5.54476 13.6068 5.42365 13.2766 5.59864V5.62612Z" fill="white"/>
</svg>
