<svg width="19" height="19" viewBox="0 0 19 19" fill="none" xmlns="http://www.w3.org/2000/svg">
<path d="M12.6654 11.4792C12.6654 11.6977 12.488 11.875 12.2695 11.875H6.72787C6.50937 11.875 6.33203 11.6977 6.33203 11.4792C6.33203 11.2607 6.50937 11.0833 6.72787 11.0833H12.2695C12.488 11.0833 12.6654 11.2607 12.6654 11.4792ZM17.4154 7.90479V15.4375C17.4154 17.4016 15.817 19 13.8529 19H5.14453C3.18041 19 1.58203 17.4016 1.58203 15.4375V3.5625C1.58203 1.59838 3.18041 0 5.14453 0H9.51057C10.8849 0 12.1777 0.535167 13.1491 1.50733L15.908 4.26629C16.8802 5.23846 17.4154 6.53046 17.4154 7.90479ZM12.5894 2.06625C12.1532 1.63004 11.6409 1.29833 11.082 1.08221V5.14504C11.082 5.79975 11.6148 6.33254 12.2695 6.33254H16.3324C16.1162 5.77363 15.7845 5.26142 15.3483 4.82521L12.5894 2.06625ZM16.6237 7.90479C16.6237 7.64038 16.6 7.37992 16.554 7.125H12.2695C11.1786 7.125 10.2904 6.23675 10.2904 5.14583V0.861333C10.0354 0.815417 9.77499 0.791667 9.51057 0.791667H5.14453C3.61662 0.791667 2.3737 2.03458 2.3737 3.5625V15.4375C2.3737 16.9654 3.61662 18.2083 5.14453 18.2083H13.8529C15.3808 18.2083 16.6237 16.9654 16.6237 15.4375V7.90479Z" fill="#E5E7E9"/>
</svg>
