<svg width="25" height="23" viewBox="0 0 25 23" fill="none" xmlns="http://www.w3.org/2000/svg">
<path d="M23.3549 6.62317H18.6497L19.0951 1.80324C19.1382 1.3384 18.7718 0.928843 18.2786 0.887097C17.7793 0.853249 17.3495 1.19173 17.3064 1.6577L16.8478 6.62204H9.28124L9.72422 1.80437C9.76852 1.3384 9.40096 0.928843 8.91009 0.887097C8.40725 0.853249 7.97983 1.19173 7.93673 1.6577L7.47938 6.62204H2.74068C2.24502 6.62204 1.84274 7.00226 1.84274 7.46823C1.84274 7.9342 2.24502 8.31443 2.74068 8.31443H7.32374L6.66525 15.4529H1.80443C1.30877 15.4529 0.906494 15.832 0.906494 16.2991C0.906494 16.7662 1.30877 17.1453 1.80443 17.1453H6.50961L6.06423 21.9652C6.02113 22.4301 6.38749 22.8396 6.88076 22.8814L6.95978 22.8848C7.42072 22.8848 7.81222 22.5519 7.85292 22.1108L8.31147 17.1464H15.8781L15.4351 21.9641C15.392 22.4301 15.7583 22.8396 16.2516 22.8814L16.3306 22.8848C16.7916 22.8848 17.1831 22.5519 17.2238 22.1108L17.6811 17.1464H22.4186C22.9131 17.1464 23.3166 16.7662 23.3166 16.3002C23.3166 15.8343 22.9131 15.4541 22.4186 15.4541H17.8356L18.4941 8.31556H23.3549C23.8505 8.31556 24.2528 7.93646 24.2528 7.46936C24.2528 7.00226 23.8505 6.62317 23.3549 6.62317ZM16.0337 15.4529H8.46711L9.1256 8.31556H16.6922L16.0337 15.4529Z" fill="white"/>
</svg>
