<svg width="25" height="23" viewBox="0 0 25 23" fill="none" xmlns="http://www.w3.org/2000/svg">
<path fill-rule="evenodd" clip-rule="evenodd" d="M12.9204 0.980493L23.8281 6.78264C24.2211 6.99324 24.3679 7.4772 24.1563 7.8633C23.9436 8.25046 23.4513 8.39193 23.0583 8.18664L22.1752 7.71652L20.4196 19.9377C20.1843 21.2556 19.0042 22.1575 17.5445 22.1575H7.52317C6.06563 22.1575 4.88449 21.2566 4.65345 19.9643L2.89469 7.71864L2.01477 8.18664C1.89277 8.25046 1.75997 8.28237 1.63041 8.28237C1.34323 8.28237 1.0636 8.13027 0.917843 7.86436C0.705151 7.47613 0.851984 6.99218 1.24498 6.78264L12.1506 0.980493C12.3913 0.852856 12.6796 0.852856 12.9204 0.980493ZM17.5467 20.5621C18.0617 20.5621 18.7051 20.3323 18.8207 19.6878L20.6561 6.90815L12.5349 2.58978L4.41592 6.91028L6.25349 19.7133C6.3647 20.3323 7.00709 20.5621 7.52533 20.5621H17.5467ZM12.5354 15.7108C10.2843 15.7108 8.45431 13.9069 8.45431 11.6903C8.45431 9.47363 10.2843 7.6697 12.5354 7.6697C14.7865 7.6697 16.6165 9.47363 16.6165 11.6903C16.6165 13.9069 14.7865 15.7108 12.5354 15.7108ZM12.5354 14.1153C13.8936 14.1153 14.997 13.0283 14.997 11.6903C14.997 10.3522 13.8936 9.26516 12.5354 9.26516C11.1772 9.26516 10.0738 10.3522 10.0738 11.6903C10.0738 13.0283 11.1772 14.1153 12.5354 14.1153Z" fill="white"/>
</svg>
