<svg width="24" height="23" viewBox="0 0 24 23" fill="none" xmlns="http://www.w3.org/2000/svg">
<path fill-rule="evenodd" clip-rule="evenodd" d="M0.906494 20.4098C0.906494 21.7738 2.03422 22.8848 3.41876 22.8848H20.7255C22.11 22.8848 23.2378 21.7738 23.2378 20.4098V3.35977C23.2378 1.99577 22.11 0.884766 20.7255 0.884766H3.41876C2.03422 0.884766 0.906494 1.99577 0.906494 3.35977V20.4098ZM2.58134 3.35977C2.58134 2.90547 2.9565 2.53477 3.41876 2.53477H20.7255C21.1877 2.53477 21.5629 2.90547 21.5629 3.35977V20.4098C21.5629 20.8641 21.1877 21.2348 20.7255 21.2348H3.41876C2.9565 21.2348 2.58134 20.8641 2.58134 20.4098V3.35977ZM6.48931 8.18878H17.6549C18.1172 8.18878 18.4924 7.82028 18.4924 7.36378C18.4924 6.90728 18.1172 6.53878 17.6549 6.53878H6.48931C6.02705 6.53878 5.65189 6.90948 5.65189 7.36378C5.65189 7.81808 6.02705 8.18878 6.48931 8.18878ZM6.48931 12.7098H17.6549C18.1172 12.7098 18.4924 12.3402 18.4924 11.8848C18.4924 11.4294 18.1172 11.0598 17.6549 11.0598H6.48931C6.02705 11.0598 5.65189 11.4294 5.65189 11.8848C5.65189 12.3402 6.02705 12.7098 6.48931 12.7098ZM6.48931 17.2308H12.0721C12.5344 17.2308 12.9095 16.8601 12.9095 16.4058C12.9095 15.9515 12.5344 15.5808 12.0721 15.5808H6.48931C6.02705 15.5808 5.65189 15.9493 5.65189 16.4058C5.65189 16.8623 6.02705 17.2308 6.48931 17.2308Z" fill="white"/>
</svg>
