<svg width="14" height="17" viewBox="0 0 14 17" fill="none" xmlns="http://www.w3.org/2000/svg">
<path d="M13.1954 10.0341C13.1082 9.91385 13.0209 9.81076 12.9162 9.69049C11.9736 8.60804 10.6471 7.74895 10.3504 7.45686C10.3329 7.45686 10.3329 7.43968 10.3329 7.43968C10.0188 7.13041 10.1758 6.90705 10.4202 6.64932C10.49 6.5806 10.5773 6.49468 10.6471 6.40877C10.6646 6.39159 10.682 6.37441 10.7169 6.35723L10.1758 5.85896L9.59986 5.32633C9.59986 5.32633 9.59985 5.34351 9.5824 5.36069L9.56495 5.37787C9.26822 5.66996 9.07623 5.84178 8.86677 5.89332C8.84932 5.89332 8.84932 5.89332 8.83186 5.89332C8.5875 5.92769 8.34314 5.79024 7.95915 5.4466L7.76716 5.65278L6.78971 4.81088L5.93446 3.16144L1.36143 0L0.698171 0.515451L2.75778 4.08924C2.6705 4.20952 2.61814 4.32979 2.58323 4.48442C2.47851 5.03424 2.84505 5.54969 3.40359 5.65278C3.96212 5.75587 4.48575 5.39506 4.59048 4.84524C4.6952 4.29543 4.32865 3.77998 3.78757 3.67689C3.64794 3.64253 3.50831 3.6597 3.36867 3.69407L1.2218 0.429543L4.95701 3.12707L5.46319 3.52225L5.62027 3.81434L6.31844 5.15451L7.85443 6.44314L7.87188 6.42596L8.08133 6.20259C8.09879 6.21977 8.11624 6.21978 8.13369 6.23696C8.20351 6.30568 8.34315 6.39159 8.5526 6.44314H8.57005C8.60496 6.44314 8.63986 6.46032 8.67477 6.46032C8.70968 6.46032 8.76205 6.46032 8.79695 6.46032C9.32058 6.46032 9.61731 6.0995 9.61731 6.0995L9.87912 6.37441C9.86167 6.40877 9.84422 6.42595 9.82676 6.46032C9.75694 6.52904 9.66967 6.66651 9.61731 6.94141C9.53004 7.38814 9.68712 7.8005 10.7693 8.53931C11.4849 9.0204 12.0609 9.60457 12.4624 10.0685C12.6718 10.309 13.1256 10.9276 13.3351 11.4258C13.5445 11.9928 13.4223 12.4052 13.1082 12.5598C12.7242 12.7488 12.1482 12.577 11.8515 12.2677C11.3627 11.7867 10.9438 11.3227 10.5773 11.0478C9.98385 10.5839 8.3955 9.4843 7.62751 8.91731C6.85953 8.35031 6.92934 7.92076 6.92934 7.92076L5.86464 6.97577L4.86974 7.64586L5.27119 8.91731C5.82972 9.0204 5.98682 9.91384 6.12645 10.4121C6.28354 10.9104 6.70244 13.1268 6.92934 13.7625C7.06898 14.2608 7.43552 15.1027 7.69734 15.6869C7.83697 16.2023 7.54025 16.4773 7.22607 16.546C6.92935 16.5975 6.59772 16.4085 6.37081 16.1852C6.14391 15.9618 5.93445 15.7384 5.82972 15.5838C5.533 15.1543 4.90465 14.0718 4.60792 12.8004C4.3112 11.5289 3.97957 11.2368 3.52576 11.1509C3.26394 11.0994 3.0894 11.1337 3.00213 11.1681C2.96722 11.1681 2.93232 11.1853 2.89741 11.1853L2.74031 10.8417C2.74031 10.8417 3.17667 10.7042 3.38613 10.2231C3.40358 10.1888 3.42104 10.1544 3.42104 10.12C3.43849 10.0857 3.43849 10.0513 3.45595 10.0169V9.99975C3.49085 9.77639 3.45594 9.62175 3.42104 9.53585C3.42104 9.51866 3.40359 9.50148 3.40359 9.4843L3.68285 9.38121L3.7003 9.36403L3.03704 7.47404L1.81524 6.08233L0.383986 0.721634L0 1.01372L1.4487 6.51187L2.54832 7.74894L2.98468 8.95166L2.72286 9.05476C2.89741 9.53585 2.94977 9.81075 2.82759 10.0169C2.82759 10.0341 2.81014 10.0341 2.81014 10.0513C2.68796 10.2231 2.44359 10.3434 2.07705 10.498H2.0596C2.04215 10.498 2.02469 10.5152 2.02469 10.5152L2.32142 11.2368L2.58323 11.9069C2.60069 11.8897 2.63559 11.8726 2.65304 11.8726C2.75777 11.8382 2.8625 11.7867 2.96723 11.7523C3.29886 11.632 3.56067 11.5633 3.75267 11.9585C3.75267 11.9756 3.77012 11.9756 3.77012 11.9928C4.04939 12.6114 4.6952 16.1336 6.56281 16.8552C7.90679 17.4222 8.5526 16.2023 8.13369 15.2917C7.9766 14.6732 7.54024 13.8656 7.3657 13.1955C7.03407 11.8554 6.42318 8.8314 6.42318 8.8314C7.83697 9.69049 10.1409 11.3399 10.6122 11.7695C11.2056 12.2162 12.3751 13.6423 13.4572 13.0066C14.8012 12.2334 13.2303 10.0857 13.1954 10.0341ZM3.10686 4.57033C3.15922 4.3126 3.40359 4.15797 3.6654 4.20952C3.92721 4.26106 4.0843 4.50161 4.03194 4.75933C3.97957 5.01706 3.73521 5.17169 3.4734 5.12015C3.22904 5.0686 3.07195 4.82805 3.10686 4.57033Z" fill="white"/>
</svg>
