<svg width="14" height="14" viewBox="0 0 14 14" fill="none" xmlns="http://www.w3.org/2000/svg">
<path fill-rule="evenodd" clip-rule="evenodd" d="M3.11111 0H10.1111L14 3.88889V10.8889C14 12.6071 12.6071 14 10.8889 14H3.11111C1.39289 14 0 12.6071 0 10.8889V3.11111C0 1.39289 1.39289 0 3.11111 0ZM12.2794 12.2794C12.6479 11.911 12.8531 11.41 12.8489 10.8889L12.8722 4.38667L9.63667 1.15111H3.11111C2.59001 1.14693 2.08905 1.35208 1.72056 1.72056C1.35208 2.08905 1.14693 2.59001 1.15111 3.11111V10.8889C1.14693 11.41 1.35208 11.911 1.72056 12.2794C2.08905 12.6479 2.59001 12.8531 3.11111 12.8489H10.8889C11.41 12.8531 11.911 12.6479 12.2794 12.2794Z" fill="white"/>
<path d="M8.19 2.79222H2.41111C2.08894 2.79222 1.82778 3.05339 1.82778 3.37556C1.82778 3.69772 2.08894 3.95889 2.41111 3.95889H8.19C8.51217 3.95889 8.77333 3.69772 8.77333 3.37556C8.77333 3.05339 8.51217 2.79222 8.19 2.79222Z" fill="white"/>
<path fill-rule="evenodd" clip-rule="evenodd" d="M2.53095 8.51685C2.78936 7.89709 3.39631 7.49462 4.06778 7.49776C4.97843 7.49776 5.71667 8.23599 5.71667 9.14665C5.71981 9.81811 5.31734 10.4251 4.69758 10.6835C4.07782 10.9419 3.36338 10.8007 2.88858 10.3258C2.41378 9.85105 2.27253 9.1366 2.53095 8.51685ZM3.60957 9.33962C3.68787 9.52244 3.86891 9.63981 4.06778 9.63665C4.33535 9.6324 4.55003 9.41426 4.55 9.14665C4.54997 8.94776 4.42973 8.76862 4.24567 8.69325C4.06162 8.61789 3.85026 8.66125 3.71076 8.80301C3.57125 8.94477 3.53127 9.15679 3.60957 9.33962Z" fill="white"/>
</svg>
