<svg width="21" height="23" viewBox="0 0 21 23" fill="none" xmlns="http://www.w3.org/2000/svg">
<path d="M19.3889 22.8841C19.2138 22.8841 19.041 22.8295 18.8961 22.7269L10.5809 16.8007L2.26577 22.7291C2.01156 22.9081 1.67485 22.9365 1.39389 22.7946C1.11516 22.6559 0.936768 22.3742 0.936768 22.0664V3.34127C0.936768 1.98746 2.06285 0.884766 3.44536 0.884766H17.7143C19.0968 0.884766 20.2229 1.98746 20.2229 3.34127V22.0653C20.2229 22.3732 20.0467 22.6548 19.7657 22.7946C19.6476 22.8546 19.5171 22.8841 19.3867 22.8841H19.3889ZM10.5809 14.9687C10.7537 14.9687 10.9266 15.0211 11.0715 15.1259L18.5527 20.4571V3.34127C18.5527 2.89146 18.177 2.52243 17.7165 2.52243H3.44536C2.9849 2.52243 2.60917 2.89146 2.60917 3.34127V20.4571L10.0904 15.1259C10.2353 15.0211 10.4081 14.9687 10.5809 14.9687Z" fill="white"/>
</svg>
