<svg width="17" height="16" viewBox="0 0 17 16" fill="none" xmlns="http://www.w3.org/2000/svg">
<path d="M10.2099 0.310049L6.98962 0.302246H6.98807C3.59236 0.302246 0.932617 2.97634 0.932617 6.39016C0.932617 9.58784 3.40604 12.013 6.72799 12.141V15.128C6.72799 15.2123 6.76215 15.3511 6.82115 15.4424C6.93139 15.618 7.11927 15.7132 7.3118 15.7132C7.41893 15.7132 7.52685 15.6836 7.62389 15.6211C7.82884 15.49 12.6491 12.3907 13.9029 11.3248C15.3795 10.0685 16.263 8.22699 16.2653 6.39952V6.38626C16.2607 2.97868 13.6025 0.310049 10.2099 0.309269V0.310049ZM13.1499 10.4321C12.2695 11.1812 9.37531 13.0891 7.8925 14.0551V11.5682C7.8925 11.2452 7.63243 10.983 7.31025 10.983H7.00282C4.16141 10.983 2.0979 9.05099 2.0979 6.39016C2.0979 3.63257 4.24681 1.4727 6.98884 1.4727L10.2083 1.4805H10.2099C12.9519 1.4805 15.1008 3.63882 15.1024 6.39328C15.1 7.88366 14.3711 9.39276 13.1507 10.4321H13.1499Z" fill="#8A98A4"/>
</svg>
