<svg width="18" height="16" viewBox="0 0 18 16" fill="none" xmlns="http://www.w3.org/2000/svg">
<path fill-rule="evenodd" clip-rule="evenodd" d="M17.9999 2.32103C17.9999 1.04058 16.9703 0.00256604 15.7001 0.00256604H2.39806C1.23103 -0.0525653 0.209847 0.786578 0.028118 1.95004C-0.153611 3.1135 0.562356 4.2284 1.68972 4.53749V12.884C1.68972 14.6013 3.06798 15.9949 4.77146 16H13.3083C14.1297 16.0025 14.9183 15.6752 15.4999 15.0906C16.0816 14.506 16.4085 13.712 16.4085 12.884V4.53749C17.3628 4.22916 18.0075 3.33126 17.9999 2.32103ZM13.3175 14.5996H4.78066C4.3293 14.5996 3.89643 14.4189 3.57727 14.0971C3.25811 13.7754 3.0788 13.339 3.0788 12.884V4.6395H15.0378V12.884C15.0378 13.3422 14.856 13.7814 14.5328 14.1037C14.2097 14.426 13.7721 14.6046 13.3175 14.5996ZM2.39806 3.24842H15.7001C16.2082 3.24842 16.62 2.83321 16.62 2.32103C16.62 1.80885 16.2082 1.39365 15.7001 1.39365H2.39806C1.89001 1.39365 1.47814 1.80885 1.47814 2.32103C1.47814 2.83321 1.89001 3.24842 2.39806 3.24842Z" fill="white"/>
<path d="M11.1189 7.07853H6.97927C6.59823 7.07853 6.28933 7.38993 6.28933 7.77407C6.28933 8.1582 6.59823 8.46961 6.97927 8.46961H11.1189C11.5 8.46961 11.8089 8.1582 11.8089 7.77407C11.8089 7.38993 11.5 7.07853 11.1189 7.07853Z" fill="white"/>
</svg>
