<svg width="32" height="32" viewBox="0 0 32 32" fill="none" xmlns="http://www.w3.org/2000/svg">
<path fill-rule="evenodd" clip-rule="evenodd" d="M13.7653 18.4641L3.53532 13.2975C3.18377 13.0566 2.97361 12.6579 2.97361 12.2318C2.97361 11.8057 3.18377 11.407 3.53532 11.1662L13.7653 5.99954C14.2996 5.73577 14.8874 5.59875 15.4832 5.59912C16.026 5.60205 16.5623 5.71635 17.0591 5.93496L28.4128 11.1016C28.824 11.3291 29.0792 11.7619 29.0792 12.2318C29.0792 12.7017 28.824 13.1346 28.4128 13.362L17.0591 18.5287C16.5623 18.7473 16.026 18.8616 15.4832 18.8645C14.8874 18.8649 14.2996 18.7279 13.7653 18.4641ZM15.5478 7.48496C15.2566 7.48293 14.9691 7.5493 14.7082 7.67871L5.66657 12.1866L14.7082 16.6816C14.9691 16.811 15.2566 16.8774 15.5478 16.8754C15.8155 16.8783 16.0804 16.8209 16.3228 16.7075L26.2816 12.1866L16.3228 7.65287C16.0804 7.53942 15.8155 7.48203 15.5478 7.48496Z" fill="white"/>
<path d="M27.9995 16.4491L16.5682 21.2154C15.8691 21.546 15.0586 21.546 14.3595 21.2154L4.23282 16.462C3.91671 16.3167 3.54707 16.351 3.26313 16.5521C2.97919 16.7531 2.82409 17.0904 2.85625 17.4369C2.88842 17.7833 3.10296 18.0863 3.41907 18.2316L13.5199 22.9075C14.1466 23.2175 14.8357 23.3809 15.5349 23.3854C16.1598 23.3869 16.7774 23.2502 17.3432 22.985L28.7357 18.2445C28.9806 18.1476 29.1754 17.9551 29.2753 17.7114C29.3752 17.4677 29.3716 17.1938 29.2653 16.9529C29.0475 16.4718 28.4882 16.2493 27.9995 16.4491Z" fill="white"/>
<path d="M27.9995 20.4275L16.5682 25.1937C15.8691 25.5243 15.0586 25.5243 14.3595 25.1937L4.23282 20.4533C3.91664 20.2914 3.53721 20.3155 3.24408 20.5162C2.95096 20.7168 2.79115 21.0618 2.82765 21.4151C2.86416 21.7685 3.09111 22.0735 3.41907 22.21L13.5199 26.8858C14.1405 27.2001 14.8264 27.3638 15.522 27.3637C16.1339 27.3604 16.7378 27.2238 17.2916 26.9633L28.6841 22.2229C28.9289 22.1259 29.1237 21.9334 29.2236 21.6897C29.3236 21.446 29.3199 21.1722 29.2136 20.9312C28.9934 20.4816 28.4733 20.2659 27.9995 20.4275Z" fill="white"/>
</svg>
