<svg width="28" height="20" viewBox="0 0 28 20" fill="none" xmlns="http://www.w3.org/2000/svg">
<path d="M20.6888 6.52923C20.9874 6.19323 21.3001 5.90856 21.6268 5.67523C21.9628 5.4419 22.3221 5.26456 22.7048 5.14323C23.0968 5.0219 23.5168 4.96123 23.9648 4.96123C24.5621 4.96123 25.1034 5.08723 25.5888 5.33923C26.0741 5.59123 26.4568 5.94123 26.7368 6.38923C27.0261 6.8279 27.1708 7.34123 27.1708 7.92923C27.1708 8.24656 27.1101 8.56856 26.9888 8.89523C26.8768 9.2219 26.6761 9.57656 26.3868 9.95923C26.1068 10.3419 25.7101 10.7759 25.1968 11.2612L21.5288 14.7612L20.8148 13.8372L24.3008 10.3372C24.7021 9.9359 25.0054 9.60456 25.2108 9.34323C25.4254 9.0819 25.5748 8.8439 25.6588 8.62923C25.7428 8.41456 25.7848 8.18123 25.7848 7.92923C25.7848 7.63056 25.7148 7.35523 25.5748 7.10323C25.4348 6.8419 25.2248 6.6319 24.9448 6.47323C24.6741 6.31456 24.3334 6.23523 23.9228 6.23523C23.5868 6.23523 23.2834 6.2819 23.0128 6.37523C22.7514 6.46856 22.5041 6.6039 22.2708 6.78123C22.0468 6.95856 21.8228 7.1779 21.5988 7.43923L20.6888 6.52923ZM20.8148 14.7612V13.8372L21.4588 13.5572H27.3108V14.7612H20.8148Z" fill="#8A98A4"/>
<path d="M9.19353 19.2542H9.18209C7.07077 19.2151 0.97876 13.7283 0.97876 8.53157C0.97876 6.03505 3.04267 3.84326 5.39512 3.84326C7.26694 3.84326 8.52572 5.13063 9.19271 6.06764C9.85807 5.13226 11.1168 3.84326 12.9895 3.84326C15.3436 3.84326 17.4067 6.03505 17.4067 8.53238C17.4067 13.7275 11.3138 19.2143 9.20252 19.2526H9.19353V19.2542ZM5.39594 5.06626C3.69576 5.06626 2.20566 6.68607 2.20566 8.5332C2.20566 13.2101 7.95518 17.9815 9.19435 18.032C10.4351 17.9815 16.183 13.2109 16.183 8.5332C16.183 6.68607 14.6929 5.06626 12.9928 5.06626C10.9264 5.06626 9.77224 7.45849 9.76243 7.48212C9.57443 7.94003 8.81753 7.94003 8.62871 7.48212C8.61727 7.45767 7.46393 5.06626 5.39675 5.06626H5.39594Z" fill="#8A98A4"/>
</svg>
