<svg width="383" height="47" viewBox="0 0 383 47" fill="none" xmlns="http://www.w3.org/2000/svg">
<mask id="path-1-outside-1_36_963" maskUnits="userSpaceOnUse" x="208.7" y="0" width="34" height="42" fill="black">
<rect fill="white" x="208.7" width="34" height="42"/>
<path d="M239.831 24.5035C239.639 24.2337 239.446 24.0025 239.215 23.7328C237.134 21.3052 234.206 19.3785 233.55 18.7235C233.512 18.7235 233.512 18.6849 233.512 18.6849C232.818 17.9913 233.165 17.4904 233.705 16.9124C233.859 16.7583 234.051 16.5656 234.206 16.3729C234.244 16.3344 234.283 16.2959 234.36 16.2573L233.165 15.1399L231.894 13.9453C231.894 13.9453 231.894 13.9839 231.855 14.0224L231.816 14.0609C231.161 14.716 230.738 15.1013 230.275 15.2169C230.237 15.2169 230.237 15.2169 230.198 15.2169C229.659 15.294 229.119 14.9857 228.271 14.2151L227.848 14.6775L225.69 12.7893L223.802 9.09014L213.706 2L212.242 3.156L216.788 11.1709C216.596 11.4407 216.48 11.7104 216.403 12.0572C216.172 13.2903 216.981 14.4463 218.214 14.6775C219.447 14.9087 220.603 14.0995 220.834 12.8664C221.066 11.6333 220.256 10.4773 219.062 10.2461C218.754 10.1691 218.445 10.2076 218.137 10.2847L213.398 2.96333L221.644 9.01307L222.761 9.89933L223.108 10.5544L224.649 13.56L228.04 16.45L228.079 16.4115L228.541 15.9105C228.58 15.9491 228.618 15.9491 228.657 15.9876C228.811 16.1417 229.119 16.3344 229.582 16.45H229.62C229.697 16.45 229.774 16.4885 229.851 16.4885C229.928 16.4885 230.044 16.4885 230.121 16.4885C231.277 16.4885 231.932 15.6793 231.932 15.6793L232.51 16.2959C232.472 16.3729 232.433 16.4115 232.394 16.4885C232.24 16.6427 232.048 16.9509 231.932 17.5675C231.739 18.5693 232.086 19.4941 234.475 21.1511C236.055 22.23 237.327 23.5401 238.213 24.5805C238.675 25.12 239.677 26.5072 240.14 27.6247C240.602 28.8963 240.332 29.8211 239.639 30.1679C238.791 30.5917 237.519 30.2064 236.864 29.5128C235.785 28.4339 234.861 27.3935 234.051 26.7769C232.741 25.7365 229.235 23.2704 227.539 21.9988C225.844 20.7272 225.998 19.7639 225.998 19.7639L223.647 17.6445L221.451 19.1473L222.337 21.9988C223.57 22.23 223.917 24.2337 224.225 25.3512C224.572 26.4687 225.497 31.4395 225.998 32.8652C226.306 33.9827 227.115 35.8708 227.693 37.1809C228.002 38.3369 227.347 38.9535 226.653 39.1076C225.998 39.2232 225.266 38.7993 224.765 38.2984C224.264 37.7975 223.802 37.2965 223.57 36.9497C222.915 35.9864 221.528 33.5588 220.873 30.7073C220.218 27.8559 219.486 27.2008 218.484 27.0081C217.906 26.8925 217.521 26.9696 217.328 27.0467C217.251 27.0467 217.174 27.0852 217.097 27.0852L216.75 26.3145C216.75 26.3145 217.713 26.0063 218.176 24.9273C218.214 24.8503 218.253 24.7732 218.253 24.6961C218.291 24.6191 218.291 24.542 218.33 24.4649V24.4264C218.407 23.9255 218.33 23.5787 218.253 23.386C218.253 23.3475 218.214 23.3089 218.214 23.2704L218.831 23.0392L218.869 23.0007L217.405 18.762L214.708 15.6408L211.548 3.6184L210.7 4.27348L213.898 16.6041L216.326 19.3785L217.289 22.0759L216.711 22.3071C217.097 23.386 217.212 24.0025 216.943 24.4649C216.943 24.5035 216.904 24.5035 216.904 24.542C216.634 24.9273 216.095 25.1971 215.286 25.5439H215.247C215.209 25.5439 215.17 25.5824 215.17 25.5824L215.825 27.2008L216.403 28.7036C216.442 28.6651 216.519 28.6265 216.557 28.6265C216.788 28.5495 217.02 28.4339 217.251 28.3568C217.983 28.0871 218.561 27.9329 218.985 28.8192C218.985 28.8577 219.023 28.8577 219.023 28.8963C219.64 30.2835 221.066 38.1828 225.189 39.8012C228.156 41.0728 229.582 38.3369 228.657 36.2947C228.31 34.9075 227.347 33.0964 226.961 31.5936C226.229 28.588 224.88 21.8061 224.88 21.8061C228.002 23.7328 233.088 27.432 234.128 28.3953C235.439 29.3972 238.02 32.5955 240.409 31.1697C243.376 29.4357 239.908 24.6191 239.831 24.5035ZM217.559 12.2499C217.675 11.6719 218.214 11.3251 218.792 11.4407C219.37 11.5563 219.717 12.0957 219.601 12.6737C219.486 13.2517 218.946 13.5985 218.368 13.4829C217.829 13.3673 217.482 12.8279 217.559 12.2499Z"/>
</mask>
<path d="M239.831 24.5035C239.639 24.2337 239.446 24.0025 239.215 23.7328C237.134 21.3052 234.206 19.3785 233.55 18.7235C233.512 18.7235 233.512 18.6849 233.512 18.6849C232.818 17.9913 233.165 17.4904 233.705 16.9124C233.859 16.7583 234.051 16.5656 234.206 16.3729C234.244 16.3344 234.283 16.2959 234.36 16.2573L233.165 15.1399L231.894 13.9453C231.894 13.9453 231.894 13.9839 231.855 14.0224L231.816 14.0609C231.161 14.716 230.738 15.1013 230.275 15.2169C230.237 15.2169 230.237 15.2169 230.198 15.2169C229.659 15.294 229.119 14.9857 228.271 14.2151L227.848 14.6775L225.69 12.7893L223.802 9.09014L213.706 2L212.242 3.156L216.788 11.1709C216.596 11.4407 216.48 11.7104 216.403 12.0572C216.172 13.2903 216.981 14.4463 218.214 14.6775C219.447 14.9087 220.603 14.0995 220.834 12.8664C221.066 11.6333 220.256 10.4773 219.062 10.2461C218.754 10.1691 218.445 10.2076 218.137 10.2847L213.398 2.96333L221.644 9.01307L222.761 9.89933L223.108 10.5544L224.649 13.56L228.04 16.45L228.079 16.4115L228.541 15.9105C228.58 15.9491 228.618 15.9491 228.657 15.9876C228.811 16.1417 229.119 16.3344 229.582 16.45H229.62C229.697 16.45 229.774 16.4885 229.851 16.4885C229.928 16.4885 230.044 16.4885 230.121 16.4885C231.277 16.4885 231.932 15.6793 231.932 15.6793L232.51 16.2959C232.472 16.3729 232.433 16.4115 232.394 16.4885C232.24 16.6427 232.048 16.9509 231.932 17.5675C231.739 18.5693 232.086 19.4941 234.475 21.1511C236.055 22.23 237.327 23.5401 238.213 24.5805C238.675 25.12 239.677 26.5072 240.14 27.6247C240.602 28.8963 240.332 29.8211 239.639 30.1679C238.791 30.5917 237.519 30.2064 236.864 29.5128C235.785 28.4339 234.861 27.3935 234.051 26.7769C232.741 25.7365 229.235 23.2704 227.539 21.9988C225.844 20.7272 225.998 19.7639 225.998 19.7639L223.647 17.6445L221.451 19.1473L222.337 21.9988C223.57 22.23 223.917 24.2337 224.225 25.3512C224.572 26.4687 225.497 31.4395 225.998 32.8652C226.306 33.9827 227.115 35.8708 227.693 37.1809C228.002 38.3369 227.347 38.9535 226.653 39.1076C225.998 39.2232 225.266 38.7993 224.765 38.2984C224.264 37.7975 223.802 37.2965 223.57 36.9497C222.915 35.9864 221.528 33.5588 220.873 30.7073C220.218 27.8559 219.486 27.2008 218.484 27.0081C217.906 26.8925 217.521 26.9696 217.328 27.0467C217.251 27.0467 217.174 27.0852 217.097 27.0852L216.75 26.3145C216.75 26.3145 217.713 26.0063 218.176 24.9273C218.214 24.8503 218.253 24.7732 218.253 24.6961C218.291 24.6191 218.291 24.542 218.33 24.4649V24.4264C218.407 23.9255 218.33 23.5787 218.253 23.386C218.253 23.3475 218.214 23.3089 218.214 23.2704L218.831 23.0392L218.869 23.0007L217.405 18.762L214.708 15.6408L211.548 3.6184L210.7 4.27348L213.898 16.6041L216.326 19.3785L217.289 22.0759L216.711 22.3071C217.097 23.386 217.212 24.0025 216.943 24.4649C216.943 24.5035 216.904 24.5035 216.904 24.542C216.634 24.9273 216.095 25.1971 215.286 25.5439H215.247C215.209 25.5439 215.17 25.5824 215.17 25.5824L215.825 27.2008L216.403 28.7036C216.442 28.6651 216.519 28.6265 216.557 28.6265C216.788 28.5495 217.02 28.4339 217.251 28.3568C217.983 28.0871 218.561 27.9329 218.985 28.8192C218.985 28.8577 219.023 28.8577 219.023 28.8963C219.64 30.2835 221.066 38.1828 225.189 39.8012C228.156 41.0728 229.582 38.3369 228.657 36.2947C228.31 34.9075 227.347 33.0964 226.961 31.5936C226.229 28.588 224.88 21.8061 224.88 21.8061C228.002 23.7328 233.088 27.432 234.128 28.3953C235.439 29.3972 238.02 32.5955 240.409 31.1697C243.376 29.4357 239.908 24.6191 239.831 24.5035ZM217.559 12.2499C217.675 11.6719 218.214 11.3251 218.792 11.4407C219.37 11.5563 219.717 12.0957 219.601 12.6737C219.486 13.2517 218.946 13.5985 218.368 13.4829C217.829 13.3673 217.482 12.8279 217.559 12.2499Z" fill="white"/>
<path d="M239.831 24.5035C239.639 24.2337 239.446 24.0025 239.215 23.7328C237.134 21.3052 234.206 19.3785 233.55 18.7235C233.512 18.7235 233.512 18.6849 233.512 18.6849C232.818 17.9913 233.165 17.4904 233.705 16.9124C233.859 16.7583 234.051 16.5656 234.206 16.3729C234.244 16.3344 234.283 16.2959 234.36 16.2573L233.165 15.1399L231.894 13.9453C231.894 13.9453 231.894 13.9839 231.855 14.0224L231.816 14.0609C231.161 14.716 230.738 15.1013 230.275 15.2169C230.237 15.2169 230.237 15.2169 230.198 15.2169C229.659 15.294 229.119 14.9857 228.271 14.2151L227.848 14.6775L225.69 12.7893L223.802 9.09014L213.706 2L212.242 3.156L216.788 11.1709C216.596 11.4407 216.48 11.7104 216.403 12.0572C216.172 13.2903 216.981 14.4463 218.214 14.6775C219.447 14.9087 220.603 14.0995 220.834 12.8664C221.066 11.6333 220.256 10.4773 219.062 10.2461C218.754 10.1691 218.445 10.2076 218.137 10.2847L213.398 2.96333L221.644 9.01307L222.761 9.89933L223.108 10.5544L224.649 13.56L228.04 16.45L228.079 16.4115L228.541 15.9105C228.58 15.9491 228.618 15.9491 228.657 15.9876C228.811 16.1417 229.119 16.3344 229.582 16.45H229.62C229.697 16.45 229.774 16.4885 229.851 16.4885C229.928 16.4885 230.044 16.4885 230.121 16.4885C231.277 16.4885 231.932 15.6793 231.932 15.6793L232.51 16.2959C232.472 16.3729 232.433 16.4115 232.394 16.4885C232.24 16.6427 232.048 16.9509 231.932 17.5675C231.739 18.5693 232.086 19.4941 234.475 21.1511C236.055 22.23 237.327 23.5401 238.213 24.5805C238.675 25.12 239.677 26.5072 240.14 27.6247C240.602 28.8963 240.332 29.8211 239.639 30.1679C238.791 30.5917 237.519 30.2064 236.864 29.5128C235.785 28.4339 234.861 27.3935 234.051 26.7769C232.741 25.7365 229.235 23.2704 227.539 21.9988C225.844 20.7272 225.998 19.7639 225.998 19.7639L223.647 17.6445L221.451 19.1473L222.337 21.9988C223.57 22.23 223.917 24.2337 224.225 25.3512C224.572 26.4687 225.497 31.4395 225.998 32.8652C226.306 33.9827 227.115 35.8708 227.693 37.1809C228.002 38.3369 227.347 38.9535 226.653 39.1076C225.998 39.2232 225.266 38.7993 224.765 38.2984C224.264 37.7975 223.802 37.2965 223.57 36.9497C222.915 35.9864 221.528 33.5588 220.873 30.7073C220.218 27.8559 219.486 27.2008 218.484 27.0081C217.906 26.8925 217.521 26.9696 217.328 27.0467C217.251 27.0467 217.174 27.0852 217.097 27.0852L216.75 26.3145C216.75 26.3145 217.713 26.0063 218.176 24.9273C218.214 24.8503 218.253 24.7732 218.253 24.6961C218.291 24.6191 218.291 24.542 218.33 24.4649V24.4264C218.407 23.9255 218.33 23.5787 218.253 23.386C218.253 23.3475 218.214 23.3089 218.214 23.2704L218.831 23.0392L218.869 23.0007L217.405 18.762L214.708 15.6408L211.548 3.6184L210.7 4.27348L213.898 16.6041L216.326 19.3785L217.289 22.0759L216.711 22.3071C217.097 23.386 217.212 24.0025 216.943 24.4649C216.943 24.5035 216.904 24.5035 216.904 24.542C216.634 24.9273 216.095 25.1971 215.286 25.5439H215.247C215.209 25.5439 215.17 25.5824 215.17 25.5824L215.825 27.2008L216.403 28.7036C216.442 28.6651 216.519 28.6265 216.557 28.6265C216.788 28.5495 217.02 28.4339 217.251 28.3568C217.983 28.0871 218.561 27.9329 218.985 28.8192C218.985 28.8577 219.023 28.8577 219.023 28.8963C219.64 30.2835 221.066 38.1828 225.189 39.8012C228.156 41.0728 229.582 38.3369 228.657 36.2947C228.31 34.9075 227.347 33.0964 226.961 31.5936C226.229 28.588 224.88 21.8061 224.88 21.8061C228.002 23.7328 233.088 27.432 234.128 28.3953C235.439 29.3972 238.02 32.5955 240.409 31.1697C243.376 29.4357 239.908 24.6191 239.831 24.5035ZM217.559 12.2499C217.675 11.6719 218.214 11.3251 218.792 11.4407C219.37 11.5563 219.717 12.0957 219.601 12.6737C219.486 13.2517 218.946 13.5985 218.368 13.4829C217.829 13.3673 217.482 12.8279 217.559 12.2499Z" stroke="black" stroke-opacity="0.35" stroke-width="2" mask="url(#path-1-outside-1_36_963)"/>
<g filter="url(#filter0_d_36_963)">
<path d="M29.8248 7.93417L27.7825 14.2536C26.7036 13.56 25.5476 13.0591 24.3145 12.7123C23.0815 12.3655 21.8099 12.2114 20.3841 12.2114C16.6464 12.2114 13.7179 13.2518 11.6371 15.3711C9.55626 17.4904 8.47733 20.4189 8.47733 24.1952C8.47733 26.6228 9.28653 28.588 10.8664 30.0138C12.4463 31.4395 14.6041 32.1716 17.34 32.1716C18.5345 32.1716 19.7676 32.0175 21.0007 31.7092C22.2337 31.4009 23.4668 30.9 24.7769 30.2835L24.0063 37.4507C22.5035 37.836 21.0392 38.1058 19.6135 38.2984C18.1877 38.4911 16.8391 38.6067 15.4904 38.6067C10.6352 38.6067 6.8204 37.3351 4.08454 34.7534C1.34867 32.1716 0 28.588 0 24.0411C0 21.6906 0.423862 19.4171 1.2716 17.2207C2.11933 15.0243 3.31387 13.1362 4.81667 11.5948C6.62773 9.7067 8.70854 8.35803 11.0205 7.47176C13.3325 6.5855 16.1069 6.16162 19.2667 6.16162C20.9236 6.16162 22.6191 6.31576 24.3916 6.62403C26.0871 6.89376 27.9367 7.31764 29.8248 7.93417Z" fill="#1886D0"/>
</g>
<g filter="url(#filter1_d_36_963)">
<path d="M47.4731 6.12305C51.7503 6.12305 55.1027 7.31757 57.5303 9.62957C59.9579 11.9801 61.1524 15.2554 61.1524 19.417C61.1524 21.652 60.8056 23.8484 60.112 26.0062C59.4184 28.1641 58.4936 30.0522 57.2991 31.6706C55.6036 33.9441 53.5614 35.6396 51.1723 36.8341C48.7832 38.0287 46.1244 38.6066 43.2344 38.6066C38.9187 38.6066 35.5278 37.4121 33.1002 35.023C30.6726 32.634 29.478 29.3586 29.478 25.12C29.478 22.9236 29.7863 20.7657 30.4028 18.7235C31.0194 16.6812 31.8671 14.9086 32.9846 13.3673C34.7571 10.9397 36.8379 9.0901 39.2655 7.89557C41.6546 6.70104 44.3904 6.12305 47.4731 6.12305ZM52.598 18.9932C52.598 16.7197 52.0971 14.9857 51.0952 13.7526C50.0934 12.5196 48.7062 11.903 46.8951 11.903C45.6235 11.903 44.429 12.2884 43.3115 13.0205C42.194 13.7526 41.1922 14.8701 40.3059 16.2958C39.5738 17.4904 38.9958 18.9161 38.5334 20.573C38.071 22.2685 37.8398 23.8869 37.8398 25.5053C37.8398 27.7017 38.3407 29.3972 39.3426 30.6688C40.3444 31.9404 41.7316 32.5569 43.4656 32.5569C44.7372 32.5569 45.8932 32.2101 46.9722 31.478C48.0511 30.7458 49.0915 29.6669 50.0548 28.1641C50.787 27.0081 51.365 25.6209 51.8274 23.9255C52.3668 22.1915 52.598 20.573 52.598 18.9932Z" fill="#1886D0"/>
</g>
<g filter="url(#filter2_d_36_963)">
<path d="M68.9362 6.81684H77.2594L73.5216 24.1183C73.329 24.889 73.2134 25.6211 73.1363 26.3532C73.0592 27.0854 73.0207 27.8175 73.0207 28.5111C73.0207 29.6671 73.4446 30.669 74.2923 31.4397C75.14 32.2489 76.1804 32.6342 77.4135 32.6342C79.0704 32.6342 80.3806 31.9791 81.3824 30.7075C82.3458 29.4359 83.232 27.1239 83.9642 23.7715L87.7019 6.77832H95.6783L91.6708 26.122C90.7846 30.4763 89.1276 33.6746 86.7771 35.6783C84.4266 37.6821 81.1127 38.6839 76.874 38.6839C72.9436 38.6839 69.938 37.7976 67.8572 35.9866C65.7764 34.1755 64.6975 31.6323 64.6975 28.2799C64.6975 27.5092 64.736 26.7771 64.8131 26.0835C64.8902 25.3899 65.0058 24.6963 65.1599 24.0798L68.9362 6.81684Z" fill="#1886D0"/>
</g>
<g filter="url(#filter3_d_36_963)">
<path d="M101.805 6.81689H111.978L116.794 22.5385C117.218 23.9257 117.565 25.1202 117.796 26.1221C118.028 27.124 118.182 28.0873 118.297 29.0121H118.683C118.76 28.1644 118.875 27.201 119.029 26.1606C119.222 25.1202 119.453 23.8872 119.762 22.5L123.075 6.81689H130.628L124.039 37.8362H113.866L108.587 20.4962C108.356 19.7256 108.124 18.9164 107.97 18.0686C107.816 17.2209 107.662 16.3732 107.585 15.4869H107.238C107.084 16.6044 106.93 17.6833 106.776 18.7237C106.622 19.7641 106.429 20.7274 106.236 21.6137L102.807 37.8362H95.2158L101.805 6.81689Z" fill="#1886D0"/>
</g>
<g filter="url(#filter4_d_36_963)">
<path d="M134.289 6.81689H158.295L157.023 12.7896H149.086L143.768 37.8362H135.406L140.724 12.7896H133.056L134.289 6.81689Z" fill="#1886D0"/>
</g>
<g filter="url(#filter5_d_36_963)">
<path d="M161.724 6.81689H183.573L182.34 12.5969H168.738L167.466 18.8008H180.259L179.064 24.3881H166.271L164.653 32.0177H178.718L177.485 37.8362H155.135L161.724 6.81689Z" fill="#1886D0"/>
</g>
<g filter="url(#filter6_d_36_963)">
<path d="M211.24 17.1049L209.159 9.01286C209.043 8.93579 208.966 8.85871 208.851 8.78165C207.001 7.51005 204.227 6.85498 200.527 6.85498H188.775L182.224 37.8743H190.316L192.898 25.5436H194.401C195.595 25.5436 196.443 25.7363 196.982 26.0831C197.522 26.4299 197.907 27.0465 198.1 27.9327L200.296 37.9129H208.427L206.153 27.3547C205.884 26.0061 205.498 24.9657 205.036 24.2721C204.573 23.5785 203.918 22.9619 203.071 22.4225C205.807 22.1913 207.887 21.4206 209.39 20.0334C210.276 19.1857 210.854 18.2223 211.24 17.1049ZM201.568 18.6847C200.527 19.3783 199.025 19.7251 197.098 19.7251H194.169L195.634 12.4809H198.871C200.296 12.4809 201.337 12.7506 202.069 13.2901C202.801 13.8295 203.148 14.6387 203.148 15.6791C203.109 16.9893 202.608 17.9911 201.568 18.6847Z" fill="#1886D0"/>
</g>
<path d="M236.017 6.81684L234.784 12.7895H242.452L240.641 21.2668C240.872 21.498 241.065 21.7292 241.257 21.9604C241.527 22.2687 241.758 22.5384 241.951 22.8082L242.028 22.8852C242.683 23.81 244.802 27.0854 244.147 30.1295C243.839 31.5552 242.991 32.7112 241.72 33.4819C240.91 33.9828 239.986 34.214 239.061 34.214C238.676 34.214 238.29 34.1755 237.905 34.0984L237.134 37.7977H245.496L250.814 12.751H258.751L260.023 6.77832H236.017V6.81684Z" fill="#E6E6E6"/>
<path d="M263.529 6.81689H275.243C278.943 6.81689 281.717 7.47196 283.567 8.74356C285.416 10.0152 286.341 11.9418 286.341 14.485C286.341 16.7585 285.609 18.6081 284.106 19.9568C282.603 21.3054 280.523 22.1146 277.787 22.3458C278.634 22.8853 279.289 23.5018 279.752 24.1954C280.214 24.889 280.6 25.9294 280.869 27.2781L283.143 37.8362H275.012L272.816 27.8561C272.623 26.9698 272.238 26.3533 271.698 26.0065C271.159 25.6597 270.273 25.467 269.117 25.467H267.614L265.032 37.7977H256.902L263.529 6.81689ZM270.35 12.5198L268.885 19.7641H271.814C273.741 19.7641 275.205 19.4173 276.284 18.7237C277.324 18.0301 277.864 17.0282 277.864 15.7566C277.864 14.6777 277.517 13.907 276.785 13.3676C276.053 12.8281 275.012 12.5584 273.587 12.5584H270.35V12.5198Z" fill="#E6E6E6"/>
<path d="M302.448 6.81689H312.736L317.746 37.8362H309.5L308.69 31.2085H296.553L292.853 37.8362H284.145L302.448 6.81689ZM306.61 12.9052L299.751 25.39H308.112L306.61 12.9052Z" fill="#E6E6E6"/>
<path d="M326.686 6.81689H337.013C342.484 6.81689 346.53 7.93436 349.189 10.2078C351.848 12.4813 353.197 15.9108 353.197 20.5348C353.197 23.1936 352.734 25.6597 351.809 27.9332C350.885 30.2066 349.574 32.0562 347.879 33.5205C346.145 35.0233 344.103 36.1408 341.791 36.8344C339.479 37.528 336.55 37.8748 333.082 37.8748H320.135L326.686 6.81689ZM333.891 12.8281L329.845 31.7094H333.352C335.202 31.7094 336.704 31.5168 337.976 31.0929C339.209 30.669 340.288 30.014 341.213 29.0892C342.33 27.9717 343.216 26.623 343.833 25.0817C344.45 23.5404 344.758 21.922 344.758 20.265C344.758 17.876 344.103 16.0649 342.754 14.7548C341.405 13.4446 339.517 12.7896 337.051 12.7896H333.891V12.8281Z" fill="#E6E6E6"/>
<path d="M361.134 6.81689H382.983L381.75 12.5969H368.147L366.876 18.8008H379.669L378.474 24.3881H365.643L364.024 32.0177H378.089L376.856 37.8362H354.507L361.134 6.81689Z" fill="#E6E6E6"/>
<defs>
<filter id="filter0_d_36_963" x="-4" y="6.16162" width="37.8247" height="40.4453" filterUnits="userSpaceOnUse" color-interpolation-filters="sRGB">
<feFlood flood-opacity="0" result="BackgroundImageFix"/>
<feColorMatrix in="SourceAlpha" type="matrix" values="0 0 0 0 0 0 0 0 0 0 0 0 0 0 0 0 0 0 127 0" result="hardAlpha"/>
<feOffset dy="4"/>
<feGaussianBlur stdDeviation="2"/>
<feComposite in2="hardAlpha" operator="out"/>
<feColorMatrix type="matrix" values="0 0 0 0 0.0166667 0 0 0 0 0.0166667 0 0 0 0 0.0166667 0 0 0 0.44 0"/>
<feBlend mode="normal" in2="BackgroundImageFix" result="effect1_dropShadow_36_963"/>
<feBlend mode="normal" in="SourceGraphic" in2="effect1_dropShadow_36_963" result="shape"/>
</filter>
<filter id="filter1_d_36_963" x="25.478" y="6.12305" width="39.6743" height="40.4834" filterUnits="userSpaceOnUse" color-interpolation-filters="sRGB">
<feFlood flood-opacity="0" result="BackgroundImageFix"/>
<feColorMatrix in="SourceAlpha" type="matrix" values="0 0 0 0 0 0 0 0 0 0 0 0 0 0 0 0 0 0 127 0" result="hardAlpha"/>
<feOffset dy="4"/>
<feGaussianBlur stdDeviation="2"/>
<feComposite in2="hardAlpha" operator="out"/>
<feColorMatrix type="matrix" values="0 0 0 0 0.0166667 0 0 0 0 0.0166667 0 0 0 0 0.0166667 0 0 0 0.44 0"/>
<feBlend mode="normal" in2="BackgroundImageFix" result="effect1_dropShadow_36_963"/>
<feBlend mode="normal" in="SourceGraphic" in2="effect1_dropShadow_36_963" result="shape"/>
</filter>
<filter id="filter2_d_36_963" x="60.6975" y="6.77832" width="38.9807" height="39.9058" filterUnits="userSpaceOnUse" color-interpolation-filters="sRGB">
<feFlood flood-opacity="0" result="BackgroundImageFix"/>
<feColorMatrix in="SourceAlpha" type="matrix" values="0 0 0 0 0 0 0 0 0 0 0 0 0 0 0 0 0 0 127 0" result="hardAlpha"/>
<feOffset dy="4"/>
<feGaussianBlur stdDeviation="2"/>
<feComposite in2="hardAlpha" operator="out"/>
<feColorMatrix type="matrix" values="0 0 0 0 0.0166667 0 0 0 0 0.0166667 0 0 0 0 0.0166667 0 0 0 0.44 0"/>
<feBlend mode="normal" in2="BackgroundImageFix" result="effect1_dropShadow_36_963"/>
<feBlend mode="normal" in="SourceGraphic" in2="effect1_dropShadow_36_963" result="shape"/>
</filter>
<filter id="filter3_d_36_963" x="91.2158" y="6.81689" width="43.4121" height="39.0195" filterUnits="userSpaceOnUse" color-interpolation-filters="sRGB">
<feFlood flood-opacity="0" result="BackgroundImageFix"/>
<feColorMatrix in="SourceAlpha" type="matrix" values="0 0 0 0 0 0 0 0 0 0 0 0 0 0 0 0 0 0 127 0" result="hardAlpha"/>
<feOffset dy="4"/>
<feGaussianBlur stdDeviation="2"/>
<feComposite in2="hardAlpha" operator="out"/>
<feColorMatrix type="matrix" values="0 0 0 0 0.0166667 0 0 0 0 0.0166667 0 0 0 0 0.0166667 0 0 0 0.44 0"/>
<feBlend mode="normal" in2="BackgroundImageFix" result="effect1_dropShadow_36_963"/>
<feBlend mode="normal" in="SourceGraphic" in2="effect1_dropShadow_36_963" result="shape"/>
</filter>
<filter id="filter4_d_36_963" x="129.056" y="6.81689" width="33.2393" height="39.0195" filterUnits="userSpaceOnUse" color-interpolation-filters="sRGB">
<feFlood flood-opacity="0" result="BackgroundImageFix"/>
<feColorMatrix in="SourceAlpha" type="matrix" values="0 0 0 0 0 0 0 0 0 0 0 0 0 0 0 0 0 0 127 0" result="hardAlpha"/>
<feOffset dy="4"/>
<feGaussianBlur stdDeviation="2"/>
<feComposite in2="hardAlpha" operator="out"/>
<feColorMatrix type="matrix" values="0 0 0 0 0.0166667 0 0 0 0 0.0166667 0 0 0 0 0.0166667 0 0 0 0.44 0"/>
<feBlend mode="normal" in2="BackgroundImageFix" result="effect1_dropShadow_36_963"/>
<feBlend mode="normal" in="SourceGraphic" in2="effect1_dropShadow_36_963" result="shape"/>
</filter>
<filter id="filter5_d_36_963" x="151.135" y="6.81689" width="36.4375" height="39.0195" filterUnits="userSpaceOnUse" color-interpolation-filters="sRGB">
<feFlood flood-opacity="0" result="BackgroundImageFix"/>
<feColorMatrix in="SourceAlpha" type="matrix" values="0 0 0 0 0 0 0 0 0 0 0 0 0 0 0 0 0 0 127 0" result="hardAlpha"/>
<feOffset dy="4"/>
<feGaussianBlur stdDeviation="2"/>
<feComposite in2="hardAlpha" operator="out"/>
<feColorMatrix type="matrix" values="0 0 0 0 0.0166667 0 0 0 0 0.0166667 0 0 0 0 0.0166667 0 0 0 0.44 0"/>
<feBlend mode="normal" in2="BackgroundImageFix" result="effect1_dropShadow_36_963"/>
<feBlend mode="normal" in="SourceGraphic" in2="effect1_dropShadow_36_963" result="shape"/>
</filter>
<filter id="filter6_d_36_963" x="178.224" y="6.85498" width="37.0156" height="39.0581" filterUnits="userSpaceOnUse" color-interpolation-filters="sRGB">
<feFlood flood-opacity="0" result="BackgroundImageFix"/>
<feColorMatrix in="SourceAlpha" type="matrix" values="0 0 0 0 0 0 0 0 0 0 0 0 0 0 0 0 0 0 127 0" result="hardAlpha"/>
<feOffset dy="4"/>
<feGaussianBlur stdDeviation="2"/>
<feComposite in2="hardAlpha" operator="out"/>
<feColorMatrix type="matrix" values="0 0 0 0 0.0166667 0 0 0 0 0.0166667 0 0 0 0 0.0166667 0 0 0 0.44 0"/>
<feBlend mode="normal" in2="BackgroundImageFix" result="effect1_dropShadow_36_963"/>
<feBlend mode="normal" in="SourceGraphic" in2="effect1_dropShadow_36_963" result="shape"/>
</filter>
</defs>
</svg>
