<svg width="24" height="21" viewBox="0 0 24 21" fill="none" xmlns="http://www.w3.org/2000/svg">
<path d="M20.1672 0.884766H3.97704C2.28322 0.884766 0.906494 2.25588 0.906494 3.94254V17.8259C0.906494 19.5125 2.28322 20.8848 3.97704 20.8848H20.1672C21.861 20.8848 23.2378 19.5125 23.2378 17.8259V3.94254C23.2378 2.25588 21.861 0.884766 20.1672 0.884766ZM3.97704 2.55143H20.1672C20.9376 2.55143 21.5629 3.17365 21.5629 3.94032V4.73365L12.5746 10.697C12.2698 10.897 11.8756 10.8992 11.5697 10.6948L2.58134 4.73365V3.94032C2.58134 3.17365 3.20661 2.55143 3.97704 2.55143ZM20.1672 19.2159H3.97704C3.20661 19.2159 2.58134 18.5937 2.58134 17.827V6.68699L10.6653 12.0537C11.0929 12.3381 11.5831 12.4803 12.0721 12.4803C12.5634 12.4803 13.0514 12.3381 13.479 12.0548L21.5629 6.6881V17.8237C21.5629 18.5903 20.9376 19.2125 20.1672 19.2125V19.2159Z" fill="white"/>
</svg>
