<svg width="25" height="24" viewBox="0 0 25 24" fill="none" xmlns="http://www.w3.org/2000/svg">
<path d="M23.9027 17.5609C23.8793 17.5426 21.4043 15.6797 21.4475 10.6441C21.4709 7.73968 20.4995 5.15877 18.7075 3.37736C17.1023 1.77948 14.9285 0.896236 12.5877 0.884766H12.5726C10.233 0.896236 8.05919 1.77948 6.45278 3.37851C4.66191 5.15991 3.68826 7.73968 3.71394 10.6441C3.75714 15.6109 1.35569 17.4887 1.25996 17.5609C0.956424 17.7823 0.832674 18.1689 0.950587 18.5222C1.06967 18.8755 1.40589 19.1129 1.78181 19.1129H7.52566C7.64474 21.7627 9.85706 23.8848 12.5807 23.8848C15.3044 23.8848 17.5144 21.7627 17.6323 19.1129H23.3785C23.7544 19.1129 24.0906 18.8766 24.2074 18.5233C24.3276 18.1712 24.2039 17.7835 23.9003 17.5621L23.9027 17.5609ZM12.5819 22.1607C10.8249 22.1607 9.39475 20.8106 9.28034 19.1118H15.8834C15.7667 20.8095 14.3389 22.163 12.5819 22.163V22.1607ZM3.68592 17.3912C4.54983 16.0927 5.49313 13.9178 5.46512 10.628C5.4441 8.15034 6.21695 6.06037 7.69845 4.58638C8.97447 3.31656 10.7105 2.61341 12.5819 2.60538C14.4533 2.61455 16.1858 3.31656 17.4618 4.58752C18.9445 6.06151 19.7185 8.15034 19.6975 10.6292C19.6695 13.919 20.6139 16.095 21.4779 17.3923H3.68592V17.3912Z" fill="white"/>
</svg>
