<svg width="21" height="24" viewBox="0 0 21 24" fill="none" xmlns="http://www.w3.org/2000/svg">
<path d="M10.5799 12.3735C12.1446 12.3735 13.8963 12.2038 15.0141 10.9532C15.9541 9.90158 16.2589 8.27552 15.9448 5.98683C15.506 2.79239 13.5003 0.884766 10.5799 0.884766C7.65961 0.884766 5.65384 2.79239 5.21504 5.98909C4.90095 8.27552 5.2058 9.90158 6.14575 10.9532C7.26354 12.205 9.01527 12.3735 10.5799 12.3735ZM6.93097 6.21299C7.11804 4.85605 7.83975 2.58093 10.5799 2.58093C13.3201 2.58093 14.0418 4.85718 14.2289 6.21299C14.4679 7.96569 14.2947 9.18354 13.7093 9.83712C13.1839 10.4251 12.2474 10.6773 10.5799 10.6773C8.9125 10.6773 7.97601 10.4251 7.4506 9.83712C6.86515 9.18354 6.69194 7.96456 6.93097 6.21299ZM20.1411 20.7638C19.1284 16.7767 15.1966 13.9905 10.5799 13.9905C5.9633 13.9905 2.03143 16.7767 1.01873 20.7638C0.820116 21.5463 0.986397 22.3469 1.47485 22.9575C1.94598 23.5455 2.67577 23.8848 3.47601 23.8848H17.6839C18.4841 23.8848 19.2139 23.5455 19.685 22.9575C20.1746 22.3469 20.3398 21.5474 20.14 20.7638H20.1411ZM18.3213 21.9127C18.1758 22.0936 17.9564 22.1909 17.6839 22.1909H3.47601C3.20464 22.1909 2.98409 22.0947 2.83859 21.9127C2.68039 21.7159 2.63074 21.4468 2.70002 21.1732C3.51989 17.9448 6.76123 15.6889 10.5799 15.6889C14.3986 15.6889 17.64 17.9437 18.4598 21.1732C18.5291 21.4468 18.4795 21.7159 18.3213 21.9127Z" fill="white"/>
</svg>
