<svg width="20" height="14" viewBox="0 0 20 14" fill="none" xmlns="http://www.w3.org/2000/svg">
<path d="M19.7976 9.82832C19.5575 9.59187 19.167 9.59187 18.9261 9.82832L17.1011 11.6198V3.35622C17.1011 1.68736 15.7174 0.329994 14.0181 0.329994H9.20875C8.8684 0.329994 8.59217 0.601144 8.59217 0.935239C8.59217 1.26934 8.8684 1.54049 9.20875 1.54049H14.0181C15.0375 1.54049 15.8679 2.35555 15.8679 3.35622V11.6198L14.0428 9.82832C13.8019 9.59187 13.4114 9.59187 13.1713 9.82832C12.9313 10.0648 12.9296 10.4481 13.1713 10.6837L16.0487 13.5082C16.168 13.6268 16.3258 13.6858 16.4845 13.6858C16.6431 13.6858 16.7993 13.6276 16.9202 13.5082L19.7976 10.6837C20.0393 10.4481 20.0393 10.0648 19.7976 9.82832ZM11.0338 12.4753H6.22448C5.20506 12.4753 4.37472 11.6602 4.37472 10.6595V2.3959L6.19981 4.18743C6.32149 4.30606 6.47933 4.36497 6.63718 4.36497C6.79502 4.36497 6.95287 4.30606 7.0729 4.18743C7.31378 3.95098 7.31378 3.56766 7.0729 3.33201L4.1955 0.507532C3.95462 0.270276 3.56412 0.270276 3.32406 0.507532L0.446657 3.33201C0.204955 3.56766 0.204955 3.95098 0.446657 4.18743C0.688359 4.42388 1.07722 4.42388 1.3181 4.18743L3.14319 2.3959V10.6595C3.14319 12.3284 4.52681 13.6858 6.22612 13.6858H11.0355C11.3758 13.6858 11.6521 13.4146 11.6521 13.0805C11.6521 12.7464 11.375 12.4753 11.0355 12.4753H11.0338Z" fill="#8A98A4"/>
</svg>
