<svg width="20" height="20" viewBox="0 0 20 20" fill="none" xmlns="http://www.w3.org/2000/svg">
<path d="M16.4723 5.55684C16.3088 5.292 16.0403 5.09805 15.7257 5.01896C15.4104 4.93986 15.0752 4.98146 14.7931 5.13438C14.3242 5.38807 13.7588 5.38777 13.2902 5.13362L12.8046 4.87027C12.365 4.63188 12.0912 4.17194 12.0912 3.67187C12.0912 3.03437 11.5425 2.5 10.8639 2.5H9.136C8.45742 2.5 7.90864 3.03437 7.90864 3.67187C7.90864 4.17197 7.63494 4.63197 7.19541 4.87053L6.71037 5.13381C6.24173 5.38818 5.67627 5.38839 5.20743 5.13438C4.92527 4.98146 4.5894 4.93985 4.27415 5.01896C3.95951 5.09806 3.69108 5.292 3.52751 5.55684L2.66477 6.96075C2.50183 7.22559 2.4575 7.54083 2.54178 7.83613C2.62606 8.13204 2.83207 8.384 3.11424 8.53692C3.57591 8.7875 3.86347 9.27067 3.86362 9.79592L3.86374 10.2041C3.8639 10.7293 3.57649 11.2125 3.11487 11.4631C2.83269 11.6166 2.62605 11.868 2.54178 12.1632C2.45751 12.4592 2.50182 12.7744 2.66477 13.0393L3.52876 14.4432C3.69168 14.708 3.96012 14.9019 4.27477 14.9811C4.59004 15.0602 4.92527 15.0186 5.20806 14.8656C5.67696 14.6119 6.24225 14.6123 6.71088 14.8664L7.19476 15.1288C7.63466 15.3674 7.90863 15.8277 7.90863 16.3282C7.90863 16.9657 8.45733 17.5 9.136 17.5H10.8634C11.5426 17.5 12.0907 16.9657 12.0907 16.3282C12.0911 15.8277 12.3653 15.3675 12.8052 15.1289L13.2897 14.8663C13.7583 14.6122 14.3237 14.6119 14.7926 14.8656C15.0753 15.0185 15.4106 15.0602 15.7252 14.9811C16.0405 14.9019 16.3089 14.708 16.4718 14.4432L17.3352 13.0393C17.4982 12.7744 17.5425 12.4592 17.4582 12.1638C17.3739 11.868 17.1679 11.616 16.8857 11.4631C16.4241 11.2125 16.1367 10.7293 16.1367 10.2041V9.79592C16.1367 9.27067 16.4241 8.7875 16.8857 8.53692C17.1679 8.38342 17.3739 8.13202 17.4582 7.83671C17.5425 7.5408 17.4982 7.22557 17.3352 6.96073L16.4723 5.55684Z" stroke="#E5E7E9" stroke-width="1.25" stroke-linecap="round"/>
<path d="M12.5 10C12.5 11.3807 11.3807 12.5 10 12.5C8.61925 12.5 7.5 11.3807 7.5 10C7.5 8.61925 8.61925 7.5 10 7.5C11.3807 7.5 12.5 8.61925 12.5 10Z" stroke="#E5E7E9" stroke-width="1.25" stroke-linecap="round"/>
</svg>
