<svg width="20" height="20" viewBox="0 0 20 20" fill="none" xmlns="http://www.w3.org/2000/svg">
<path d="M10.002 0C15.526 0 20.004 4.478 20.004 10.002C20.004 15.525 15.526 20.003 10.002 20.003C4.478 20.003 0 15.525 0 10.002C0 4.478 4.478 0 10.002 0ZM10.002 1.5C8.87781 1.48781 7.76236 1.6987 6.72022 2.12047C5.67807 2.54224 4.72993 3.16652 3.93066 3.95717C3.13139 4.74781 2.49687 5.68913 2.06382 6.72664C1.63077 7.76415 1.4078 8.87724 1.4078 10.0015C1.4078 11.1258 1.63077 12.2389 2.06382 13.2764C2.49687 14.3139 3.13139 15.2552 3.93066 16.0458C4.72993 16.8365 5.67807 17.4608 6.72022 17.8825C7.76236 18.3043 8.87781 18.5152 10.002 18.503C12.234 18.4688 14.363 17.5581 15.9294 15.9675C17.4957 14.377 18.3736 12.2343 18.3736 10.002C18.3736 7.76972 17.4957 5.62698 15.9294 4.03646C14.363 2.44594 12.234 1.53524 10.002 1.501V1.5ZM6.464 12.785C6.88475 13.321 7.42195 13.7542 8.03493 14.0519C8.64791 14.3496 9.32058 14.5038 10.002 14.503C10.6826 14.5038 11.3544 14.3499 11.9668 14.0529C12.5792 13.756 13.1161 13.3238 13.537 12.789C13.6603 12.6329 13.8406 12.5322 14.0382 12.5091C14.2357 12.4859 14.4344 12.5422 14.5905 12.6655C14.7466 12.7888 14.8473 12.9691 14.8704 13.1667C14.8936 13.3642 14.8373 13.5629 14.714 13.719C14.1527 14.4316 13.437 15.0074 12.6207 15.4031C11.8045 15.7987 10.9091 16.0038 10.002 16.003C9.09376 16.0037 8.19723 15.798 7.38021 15.4012C6.5632 15.0045 5.84708 14.4272 5.286 13.713C5.1682 13.5564 5.11639 13.3598 5.14168 13.1655C5.16696 12.9711 5.26733 12.7944 5.42129 12.6731C5.57526 12.5518 5.77058 12.4956 5.96546 12.5165C6.16034 12.5374 6.33929 12.6338 6.464 12.785ZM7.002 6.751C7.16906 6.74627 7.33537 6.7751 7.4911 6.83576C7.64683 6.89643 7.78881 6.98771 7.90865 7.1042C8.02848 7.2207 8.12374 7.36004 8.18879 7.51399C8.25384 7.66794 8.28735 7.83337 8.28735 8.0005C8.28735 8.16763 8.25384 8.33306 8.18879 8.48701C8.12374 8.64096 8.02848 8.7803 7.90865 8.8968C7.78881 9.01329 7.64683 9.10457 7.4911 9.16524C7.33537 9.2259 7.16906 9.25473 7.002 9.25C6.67673 9.2408 6.36787 9.10512 6.14106 8.8718C5.91424 8.63847 5.78735 8.3259 5.78735 8.0005C5.78735 7.6751 5.91424 7.36253 6.14106 7.12921C6.36787 6.89588 6.67673 6.7602 7.002 6.751ZM13.002 6.751C13.1691 6.74627 13.3354 6.7751 13.4911 6.83576C13.6468 6.89643 13.7888 6.98771 13.9086 7.1042C14.0285 7.2207 14.1237 7.36004 14.1888 7.51399C14.2538 7.66794 14.2874 7.83337 14.2874 8.0005C14.2874 8.16763 14.2538 8.33306 14.1888 8.48701C14.1237 8.64096 14.0285 8.7803 13.9086 8.8968C13.7888 9.01329 13.6468 9.10457 13.4911 9.16524C13.3354 9.2259 13.1691 9.25473 13.002 9.25C12.6767 9.2408 12.3679 9.10512 12.1411 8.8718C11.9142 8.63847 11.7874 8.3259 11.7874 8.0005C11.7874 7.6751 11.9142 7.36253 12.1411 7.12921C12.3679 6.89588 12.6767 6.7602 13.002 6.751Z" fill="white"/>
</svg>
