<svg width="18" height="19" viewBox="0 0 18 19" fill="none" xmlns="http://www.w3.org/2000/svg">
<path fill-rule="evenodd" clip-rule="evenodd" d="M10.3285 0.920571L15.8237 3.9704C16.697 4.45692 17.2372 5.37941 17.2341 6.37912V12.2956C17.2372 13.2953 16.697 14.2178 15.8237 14.7043L10.3285 17.7541C9.49718 18.2172 8.48545 18.2172 7.65416 17.7541L2.15898 14.7043C1.28564 14.2178 0.745473 13.2953 0.748548 12.2956V6.37912C0.745473 5.37941 1.28564 4.45692 2.15898 3.9704L7.65416 0.920571C8.48545 0.457466 9.49718 0.457466 10.3285 0.920571ZM15.1184 13.5045C15.5523 13.2562 15.8211 12.7955 15.8237 12.2956V6.37912C15.8211 5.87919 15.5523 5.4185 15.1184 5.17018L9.62326 2.12035C9.20762 1.8888 8.70175 1.8888 8.2861 2.12035L2.79092 5.17018C2.35702 5.4185 2.08829 5.87919 2.08571 6.37912V12.2956C2.08829 12.7955 2.35702 13.2562 2.79092 13.5045L8.2861 16.5544C8.70175 16.7859 9.20762 16.7859 9.62326 16.5544L15.1184 13.5045Z" fill="white"/>
<path d="M13.2776 5.85707L9.40347 8.00935C9.14844 8.1566 8.83422 8.1566 8.57919 8.00935L4.70509 5.85707C4.49031 5.73138 4.22434 5.73169 4.00985 5.85787C3.79536 5.98406 3.66589 6.21639 3.67142 6.46519C3.67696 6.71398 3.81662 6.94033 4.03651 7.05685L7.91061 9.20913C8.03913 9.27734 8.17412 9.33257 8.31359 9.37399V13.4587C8.31359 13.8381 8.62113 14.1456 9.00049 14.1456C9.37985 14.1456 9.68739 13.8381 9.68739 13.4587V9.33735C9.82125 9.30066 9.95035 9.2484 10.072 9.18166L13.9461 7.02938C14.2687 6.84062 14.3812 6.42863 14.1992 6.10217C14.0173 5.77572 13.6078 5.6546 13.2776 5.8296V5.85707Z" fill="white"/>
</svg>
