<svg width="40" height="40" viewBox="0 0 40 40" fill="none" xmlns="http://www.w3.org/2000/svg">
<g clip-path="url(#clip0_2166_2258)">
<rect width="40" height="40" rx="20" fill="#2F3640"/>
<path d="M32.1332 14.2752C32.1332 16.731 30.1215 18.7225 27.6407 18.7225C26.3997 18.7225 25.2766 18.2243 24.4634 17.4193C23.5913 16.6062 23.048 15.4547 23.048 14.1783C23.048 11.7225 25.0597 9.731 27.5405 9.731C28.8298 9.731 29.9919 10.2688 30.8121 11.1298L30.8145 11.1322C31.6288 11.9127 32.1344 13.0047 32.1344 14.2133V14.2775V14.274L32.1332 14.2752ZM17.952 27.8003C17.952 27.7957 17.952 27.791 17.952 27.7863C17.952 25.2768 15.8966 23.2433 13.3628 23.2433C13.3581 23.2433 13.3534 23.2433 13.3475 23.2433C12.9951 23.2433 12.6533 23.283 12.3233 23.3588L12.354 23.353L14.2691 24.1183C15.186 24.4718 15.9037 25.1648 16.2773 26.0363L16.2856 26.0597C16.4788 26.475 16.592 26.9603 16.592 27.4713C16.592 27.959 16.4894 28.4233 16.3044 28.8433L16.3127 28.8212C15.9544 29.7288 15.2508 30.4382 14.3657 30.7998L14.3422 30.808C13.9238 30.9958 13.4347 31.1043 12.9209 31.1043C12.4235 31.1043 11.9498 31.0017 11.5208 30.8173L11.5432 30.8255C11.2855 30.7283 10.9048 30.5793 10.4012 30.3787L9.27803 29.9318C9.67519 30.6633 10.2444 31.2595 10.9339 31.6795L10.9539 31.6912C11.6233 32.1088 12.4365 32.3573 13.3098 32.3573H13.3498H13.3475H13.3616C15.8966 32.3573 17.9508 30.3227 17.9508 27.8143C17.9508 27.8097 17.9508 27.805 17.9508 27.7992L17.952 27.8003ZM33.2364 14.2938C33.2305 11.2255 30.719 8.73933 27.6207 8.7335C24.5199 8.73583 22.0073 11.2243 22.0073 14.2938C22.0073 17.3633 24.5223 19.8542 27.6242 19.8542C29.1716 19.8542 30.5741 19.2347 31.5888 18.2313C32.6058 17.2583 33.2375 15.8945 33.2375 14.386C33.2375 14.3533 33.2375 14.3207 33.2364 14.2892V14.2938ZM35.9988 14.2938C35.9988 18.8742 32.2476 22.5888 27.6207 22.5888L19.5725 28.4C19.4358 29.9878 18.6898 31.382 17.5713 32.369L17.5654 32.3737C16.4883 33.3805 15.0304 34 13.4264 34C13.3993 34 13.3722 34 13.3451 34H13.3498C10.3635 33.9977 7.86733 31.9268 7.24388 29.156L7.23563 29.1152L-0.5 27.4375V19.6173L10.1655 22.4792C11.0588 21.9297 12.1442 21.6042 13.3051 21.6042H13.3534H13.351C13.5105 21.6042 13.7254 21.6162 13.9957 21.6403L19.226 14.2215C19.2849 9.67383 23.0185 6.00817 27.6195 6C32.244 6.007 35.9917 9.71583 35.9988 14.2938Z" fill="white"/>
</g>
<defs>
<clipPath id="clip0_2166_2258">
<rect width="40" height="40" rx="20" fill="white"/>
</clipPath>
</defs>
</svg>
