<svg width="12" height="13" viewBox="0 0 12 13" fill="none" xmlns="http://www.w3.org/2000/svg">
<path fill-rule="evenodd" clip-rule="evenodd" d="M4.42505 0.591773L10.4667 4.08344C11.2377 4.53069 11.7123 5.3546 11.7123 6.24594C11.7123 7.13727 11.2377 7.96119 10.4667 8.40844L4.42505 11.9001C3.6513 12.3468 2.69796 12.3467 1.92436 11.8997C1.15075 11.4527 0.674477 10.6269 0.675049 9.73344V2.75844C0.674477 1.86499 1.15075 1.03915 1.92436 0.592173C2.69796 0.1452 3.6513 0.145047 4.42505 0.591773ZM3.67505 10.6001L9.71672 7.11677C10.0276 6.9393 10.2187 6.60806 10.2167 6.25011C10.2199 5.88964 10.0289 5.55533 9.71672 5.37511L3.67505 1.89177C3.52394 1.80094 3.35135 1.75204 3.17505 1.75011C2.61817 1.75011 2.16672 2.20155 2.16672 2.75844V9.73344C2.16672 10.0009 2.27295 10.2573 2.46205 10.4464C2.65115 10.6355 2.90763 10.7418 3.17505 10.7418C3.35135 10.7398 3.52394 10.6909 3.67505 10.6001Z" fill="white"/>
</svg>
