<svg width="16" height="16" viewBox="0 0 16 16" fill="none" xmlns="http://www.w3.org/2000/svg">
<path d="M14.0218 10.0186L9.98323 13.5056C8.04245 15.1813 4.94766 15.1614 3.03425 13.4611C1.07553 11.7204 1.07512 8.89795 3.03333 7.15687C3.03904 7.1518 3.04476 7.14673 3.05049 7.14168L9.10043 1.81428C10.4205 0.651845 12.5508 0.660744 13.8585 1.83416C13.8654 1.8403 13.8722 1.84647 13.879 1.85266C15.1915 3.05101 15.177 4.96451 13.8463 6.14696L7.74814 11.5658C7.1122 12.1309 6.09796 12.1756 5.40223 11.6692L5.30194 11.5963C4.63088 11.1078 4.53231 10.2283 5.08178 9.63183C5.1107 9.60044 5.14114 9.57018 5.17303 9.54114L9.27353 5.80689" stroke="white" stroke-width="1.8" stroke-linecap="round" stroke-linejoin="round"/>
</svg>
